<svg width="116" height="28" viewBox="0 0 116 28" fill="none" xmlns="http://www.w3.org/2000/svg">
<g clip-path="url(#clip0_7161_3664)">
<g clip-path="url(#clip1_7161_3664)">
<path fill-rule="evenodd" clip-rule="evenodd" d="M0.695312 26.526C0.695312 27.34 1.35531 28 2.16931 28H8.06331C8.87631 28 9.53631 27.34 9.53631 26.526V23.47C9.53631 22.656 10.1963 21.996 11.0103 21.996H11.8563C12.6703 21.996 13.3303 21.336 13.3303 20.522V16.838C13.3303 16.024 12.6703 15.364 11.8563 15.364H8.17331C7.35931 15.364 6.69931 16.024 6.69931 16.838V17.684C6.69931 18.498 6.03931 19.158 5.22631 19.158H2.16931C1.35531 19.158 0.695312 19.818 0.695312 20.632V26.526ZM9.53731 5.267C9.53731 6.081 10.1973 6.741 11.0113 6.741H11.8573C12.6713 6.741 13.3313 7.401 13.3313 8.214V11.162C13.3313 11.976 12.6713 12.635 11.8573 12.635H8.91031C8.09631 12.635 7.43631 11.975 7.43631 11.162V10.316C7.43631 9.502 6.77631 8.842 5.96231 8.842H2.16931C1.35531 8.842 0.695312 8.182 0.695312 7.369V1.474C0.695312 0.66 1.35531 0 2.16931 0H8.06331C8.87731 0 9.53731 0.66 9.53731 1.474V5.267ZM21.9543 10.316C21.9543 9.502 22.6143 8.842 23.4283 8.842H27.2213C28.0353 8.842 28.6953 8.182 28.6953 7.369V1.474C28.6953 0.66 28.0353 0 27.2213 0H21.3273C20.5133 0 19.8533 0.66 19.8533 1.474V5.267C19.8533 6.081 19.1933 6.741 18.3793 6.741H17.5333C16.7193 6.741 16.0593 7.401 16.0593 8.214V11.162C16.0593 11.976 16.7193 12.635 17.5333 12.635H20.4813C21.2943 12.635 21.9543 11.975 21.9543 11.162V10.316ZM28.6943 26.526C28.6943 27.34 28.0353 28 27.2213 28H21.3263C20.5123 28 19.8533 27.34 19.8533 26.526V22.733C19.8533 21.919 19.1933 21.259 18.3793 21.259H17.5333C16.7193 21.259 16.0603 20.599 16.0603 19.786V16.838C16.0603 16.024 16.7203 15.365 17.5333 15.365H20.4813C21.2943 15.365 21.9543 16.025 21.9543 16.838V17.684C21.9543 18.498 22.6143 19.158 23.4283 19.158H27.2213C28.0353 19.158 28.6953 19.818 28.6953 20.632L28.6943 26.526Z" fill="white"/>
<path d="M39.843 22.5749C39.698 22.5749 39.625 22.4779 39.625 22.3569V5.82991C39.625 5.68391 39.698 5.58691 39.843 5.58691H48.41C51.03 5.58691 53.19 7.47991 53.19 10.6099C53.19 13.5469 51.637 15.2209 49.55 15.6579L53.336 22.2829C53.433 22.4529 53.36 22.5739 53.166 22.5739H50.568C50.509 22.5734 50.4512 22.5575 50.4003 22.5277C50.3494 22.4978 50.3072 22.4552 50.278 22.4039L46.492 15.7789H42.536V22.3309C42.536 22.4769 42.439 22.5739 42.293 22.5739H39.843V22.5749ZM42.537 13.4259H46.784C48.628 13.4259 50.278 12.9409 50.278 10.6599C50.278 8.40291 48.531 7.94191 46.784 7.94191H42.537V13.4259ZM55.835 22.5749C55.689 22.5749 55.568 22.4779 55.568 22.3319V10.6839C55.568 10.5389 55.689 10.4419 55.835 10.4419H58.092C58.237 10.4419 58.359 10.5389 58.359 10.6839V22.3319C58.359 22.4779 58.238 22.5749 58.092 22.5749H55.835ZM55.398 7.17491C55.398 6.30091 56.102 5.59791 56.976 5.59791C57.849 5.59791 58.553 6.30091 58.553 7.17491C58.553 8.04891 57.849 8.75191 56.976 8.75191C56.7687 8.75244 56.5634 8.71202 56.3717 8.63297C56.1801 8.55391 56.006 8.43779 55.8594 8.29126C55.7127 8.14473 55.5965 7.97068 55.5173 7.77911C55.4382 7.58753 55.3976 7.3822 55.398 7.17491ZM66.185 27.9869C62.691 27.9869 60.531 26.2389 60.531 23.4969C60.531 23.3519 60.628 23.2549 60.773 23.2549H63.2C63.346 23.2549 63.443 23.3519 63.443 23.4969C63.443 24.6129 64.389 25.8019 66.185 25.8019C67.835 25.8019 69.291 25.0989 69.291 22.6479V20.1239H69.243C68.636 21.3859 67.398 22.5019 65.457 22.5019C62.254 22.5019 60.288 20.4399 60.288 16.5819C60.288 12.6019 62.205 10.1989 65.457 10.1989C67.495 10.1989 68.636 11.2669 69.243 12.8189H69.291V10.6839C69.291 10.5389 69.388 10.4419 69.534 10.4419H71.961C72.106 10.4419 72.203 10.5389 72.203 10.6839V22.5999C72.203 26.5559 69.533 27.9879 66.185 27.9879V27.9869ZM63.2 16.3379C63.2 19.0559 64.535 20.3179 66.355 20.3179C68.029 20.3179 69.291 19.0559 69.291 16.3379C69.291 13.8379 68.029 12.3829 66.355 12.3829C64.535 12.3829 63.2 13.8389 63.2 16.3379ZM76.196 22.8179C75.9887 22.8183 75.7834 22.7778 75.5918 22.6986C75.4002 22.6194 75.2262 22.5032 75.0797 22.3566C74.9331 22.2099 74.817 22.0358 74.738 21.8442C74.6589 21.6526 74.6185 21.4472 74.619 21.2399C74.619 20.3669 75.323 19.6629 76.196 19.6629C77.07 19.6629 77.774 20.3669 77.774 21.2399C77.774 22.1139 77.07 22.8179 76.196 22.8179ZM84.58 22.8179C81.716 22.8179 79.484 20.4399 79.484 16.5809C79.484 12.7469 81.668 10.1989 84.58 10.1989C86.764 10.1989 87.904 11.4609 88.414 13.3539H88.462V5.94991C88.462 5.80391 88.559 5.70691 88.705 5.70691H91.01C91.156 5.70691 91.253 5.80391 91.253 5.94991V22.3319C91.253 22.4779 91.156 22.5749 91.01 22.5749H88.705C88.559 22.5749 88.462 22.4779 88.462 22.3319V20.0759H88.414C87.856 21.7259 86.667 22.8179 84.58 22.8179ZM82.396 16.5809C82.396 19.2509 83.73 20.6339 85.405 20.6339C87.103 20.6339 88.341 19.2499 88.341 16.5809C88.341 13.8389 87.103 12.3829 85.405 12.3829C83.73 12.3829 82.396 13.8389 82.396 16.5809ZM98.544 22.8179C95.001 22.8179 92.89 20.4639 92.89 16.4599C92.89 13.0139 95.002 10.1989 98.544 10.1989C101.966 10.1989 104.029 13.0139 104.029 16.7749C104.029 16.9449 103.956 17.0419 103.81 17.0419H95.802C95.924 19.3719 96.919 20.6339 98.617 20.6339C100.025 20.6339 100.801 20.0509 101.141 19.0079C101.19 18.8619 101.287 18.7889 101.408 18.7889H103.689C103.859 18.7889 103.932 18.8869 103.907 19.0559C103.349 21.1679 101.602 22.8179 98.544 22.8179ZM95.826 15.7559H101.02C101.02 13.7179 100.17 12.3829 98.544 12.3829C97.088 12.3829 96.044 13.4509 95.826 15.7559ZM108.703 22.5749C108.582 22.5749 108.485 22.5259 108.436 22.3809L103.947 10.6359C103.899 10.5139 103.947 10.4419 104.068 10.4419H106.762C106.835 10.4419 106.908 10.4659 106.932 10.5869L109.917 19.7359H109.965L112.902 10.5869C112.926 10.4659 112.999 10.4419 113.071 10.4419H115.765C115.886 10.4419 115.935 10.5139 115.886 10.6359L111.421 22.3809C111.373 22.5259 111.276 22.5749 111.154 22.5749H108.703Z" fill="white"/>
</g>
</g>
<defs>
<clipPath id="clip0_7161_3664">
<rect width="116" height="28" fill="white"/>
</clipPath>
<clipPath id="clip1_7161_3664">
<rect width="116" height="28" fill="white"/>
</clipPath>
</defs>
</svg>
