<svg width="108" height="27" viewBox="0 0 108 27" fill="none" xmlns="http://www.w3.org/2000/svg">
<g clip-path="url(#clip0_7094_4676)">
<g clip-path="url(#clip1_7094_4676)">
<path fill-rule="evenodd" clip-rule="evenodd" d="M0.117188 25.132C0.117188 25.887 0.729187 26.5 1.48519 26.5H6.95919C7.71519 26.5 8.32719 25.887 8.32719 25.132V22.293C8.32719 21.538 8.94019 20.925 9.69619 20.925H10.4822C11.2372 20.925 11.8502 20.312 11.8502 19.556V16.136C11.8502 15.38 11.2372 14.767 10.4822 14.767H7.06119C6.30519 14.767 5.69219 15.38 5.69219 16.135V16.921C5.69219 17.677 5.07919 18.29 4.32419 18.29H1.48519C0.730187 18.29 0.117188 18.902 0.117188 19.658V25.132ZM8.32719 5.39C8.32719 6.146 8.94019 6.758 9.69619 6.758H10.4822C11.2372 6.758 11.8502 7.371 11.8502 8.127V10.864C11.8502 11.619 11.2372 12.232 10.4822 12.232H7.74519C7.56545 12.2321 7.38746 12.1968 7.22137 12.1282C7.05528 12.0595 6.90436 11.9587 6.77722 11.8317C6.65008 11.7046 6.54923 11.5538 6.48042 11.3877C6.4116 11.2217 6.37619 11.0437 6.37619 10.864V10.078C6.37619 9.322 5.76419 8.71 5.00819 8.71H1.48519C1.12237 8.71 0.774415 8.56587 0.517865 8.30932C0.261316 8.05277 0.117187 7.70482 0.117188 7.342V1.87C0.117188 1.113 0.729187 0.5 1.48519 0.5H6.95919C7.71519 0.5 8.32719 1.113 8.32719 1.869V5.39ZM19.8572 10.078C19.8572 9.322 20.4702 8.71 21.2262 8.71H24.7492C25.5042 8.71 26.1172 8.097 26.1172 7.341V1.87C26.1172 1.507 25.9731 1.15884 25.7166 0.90197C25.4601 0.645103 25.1122 0.50053 24.7492 0.5H19.2752C18.9122 0.500265 18.5641 0.644583 18.3075 0.901263C18.0508 1.15794 17.9065 1.506 17.9062 1.869V5.39C17.9062 6.146 17.2942 6.758 16.5382 6.758H15.7522C14.9972 6.758 14.3842 7.371 14.3842 8.127V10.864C14.3842 11.619 14.9972 12.232 15.7522 12.232H18.4892C19.2452 12.232 19.8582 11.619 19.8582 10.864L19.8572 10.078ZM26.1172 25.131C26.1172 25.886 25.5042 26.499 24.7482 26.499H19.2752C19.0955 26.4991 18.9175 26.4638 18.7514 26.3952C18.5853 26.3265 18.4344 26.2257 18.3072 26.0987C18.1801 25.9716 18.0792 25.8208 18.0104 25.6547C17.9416 25.4887 17.9062 25.3107 17.9062 25.131V21.608C17.9062 20.853 17.2932 20.24 16.5382 20.24H15.7522C15.5725 20.24 15.3945 20.2046 15.2284 20.1358C15.0624 20.067 14.9116 19.9661 14.7845 19.839C14.6575 19.7118 14.5567 19.5609 14.488 19.3948C14.4193 19.2287 14.3841 19.0507 14.3842 18.871V16.135C14.3842 15.379 14.9972 14.766 15.7522 14.766H18.4892C18.8522 14.7663 19.2002 14.9106 19.4569 15.1673C19.7136 15.4239 19.8579 15.772 19.8582 16.135V16.92C19.8582 17.676 20.4702 18.289 21.2262 18.289H24.7482C25.5042 18.289 26.1172 18.901 26.1172 19.657V25.131Z" fill="#131313"/>
<path d="M36.4754 21.4625C36.3404 21.4625 36.2734 21.3725 36.2734 21.2605V5.91445C36.2734 5.77945 36.3404 5.68945 36.4764 5.68945H44.4304C46.8634 5.68945 48.8694 7.44745 48.8694 10.3535C48.8694 13.0805 47.4274 14.6355 45.4894 15.0415L49.0044 21.1925C49.0944 21.3505 49.0274 21.4625 48.8474 21.4625H46.4354C46.3806 21.4622 46.3268 21.4476 46.2795 21.42C46.2321 21.3925 46.1928 21.353 46.1654 21.3055L42.6504 15.1535H38.9774V21.2375C38.9774 21.3725 38.8874 21.4635 38.7514 21.4635L36.4754 21.4625ZM38.9774 12.9675H42.9204C44.6334 12.9675 46.1654 12.5175 46.1654 10.3995C46.1654 8.30345 44.5424 7.87545 42.9204 7.87545H38.9774V12.9675ZM51.3254 21.4625C51.1904 21.4625 51.0774 21.3725 51.0774 21.2375V10.4215C51.0774 10.2865 51.1904 10.1965 51.3254 10.1965H53.4214C53.5564 10.1965 53.6684 10.2865 53.6684 10.4215V21.2375C53.6684 21.3725 53.5564 21.4635 53.4214 21.4635L51.3254 21.4625ZM50.9194 7.16245C50.9194 6.35245 51.5734 5.69845 52.3844 5.69845C53.1954 5.69845 53.8494 6.35145 53.8494 7.16245C53.8494 7.97445 53.1954 8.62745 52.3844 8.62745C52.1919 8.62785 52.0013 8.59022 51.8233 8.51674C51.6454 8.44326 51.4838 8.33536 51.3476 8.19925C51.2115 8.06313 51.1036 7.90147 51.0301 7.72355C50.9567 7.54563 50.919 7.35495 50.9194 7.16245ZM60.9364 26.4885C57.6914 26.4885 55.6864 24.8655 55.6864 22.3185C55.6864 22.1845 55.7764 22.0935 55.9114 22.0935H58.1644C58.2994 22.0935 58.3894 22.1835 58.3894 22.3195C58.3894 23.3555 59.2694 24.4595 60.9364 24.4595C62.4684 24.4595 63.8204 23.8065 63.8204 21.5305V19.1875H63.7754C63.2124 20.3585 62.0624 21.3955 60.2604 21.3955C57.2854 21.3955 55.4604 19.4805 55.4604 15.8975C55.4604 12.2015 57.2404 9.97045 60.2604 9.97045C62.1524 9.97045 63.2124 10.9625 63.7754 12.4045H63.8204V10.4215C63.8204 10.2865 63.9104 10.1965 64.0454 10.1965H66.2994C66.4344 10.1965 66.5244 10.2865 66.5244 10.4215V21.4855C66.5244 25.1585 64.0454 26.4885 60.9364 26.4885ZM58.1644 15.6705C58.1644 18.1945 59.4044 19.3665 61.0944 19.3665C62.6484 19.3665 63.8204 18.1945 63.8204 15.6705C63.8204 13.3505 62.6484 11.9975 61.0934 11.9975C59.4034 11.9975 58.1644 13.3495 58.1644 15.6705ZM70.2314 21.6885C70.039 21.6887 69.8485 21.651 69.6707 21.5775C69.4928 21.5039 69.3313 21.396 69.1953 21.2599C69.0593 21.1238 68.9515 20.9622 68.8781 20.7843C68.8046 20.6065 68.767 20.4159 68.7674 20.2235C68.7674 19.4125 69.4204 18.7595 70.2324 18.7595C71.0424 18.7595 71.6964 19.4125 71.6964 20.2235C71.6964 21.0345 71.0424 21.6885 70.2314 21.6885ZM78.0164 21.6885C75.3574 21.6885 73.2844 19.4805 73.2844 15.8975C73.2844 12.3375 75.3124 9.97045 78.0164 9.97045C80.0444 9.97045 81.1044 11.1425 81.5764 12.9005H81.6224V6.02545C81.6224 5.89045 81.7124 5.80045 81.8474 5.80045H83.9874C84.1234 5.80045 84.2134 5.89045 84.2134 6.02545V21.2375C84.2134 21.3725 84.1234 21.4635 83.9884 21.4635H81.8484C81.7124 21.4635 81.6224 21.3735 81.6224 21.2375V19.1425H81.5774C81.0584 20.6745 79.9534 21.6885 78.0164 21.6885ZM75.9884 15.8975C75.9884 18.3755 77.2284 19.6605 78.7824 19.6605C80.3604 19.6605 81.5094 18.3755 81.5094 15.8975C81.5094 13.3505 80.3594 11.9985 78.7824 11.9985C77.2284 11.9985 75.9884 13.3505 75.9884 15.8975ZM90.9844 21.6885C87.6944 21.6885 85.7344 19.5025 85.7344 15.7845C85.7344 12.5845 87.6944 9.97045 90.9844 9.97045C94.1614 9.97045 96.0764 12.5845 96.0764 16.0775C96.0764 16.2355 96.0094 16.3255 95.8734 16.3255H88.4374C88.5504 18.4885 89.4744 19.6605 91.0514 19.6605C92.3584 19.6605 93.0794 19.1195 93.3954 18.1505C93.4404 18.0155 93.5304 17.9475 93.6434 17.9475H95.7614C95.9184 17.9475 95.9864 18.0375 95.9644 18.1955C95.4454 20.1555 93.8234 21.6885 90.9844 21.6885ZM88.4604 15.1315H93.2824C93.2824 13.2385 92.4934 11.9985 90.9844 11.9985C89.6324 11.9985 88.6634 12.9905 88.4604 15.1315ZM100.417 21.4625C100.304 21.4625 100.214 21.4185 100.169 21.2825L96.0004 10.3765C95.9554 10.2635 96.0004 10.1965 96.1134 10.1965H98.6144C98.6824 10.1965 98.7504 10.2185 98.7724 10.3315L101.544 18.8265H101.589L104.315 10.3315C104.338 10.2185 104.405 10.1965 104.473 10.1965H106.974C107.087 10.1965 107.132 10.2635 107.087 10.3765L102.941 21.2825C102.896 21.4185 102.806 21.4625 102.693 21.4625H100.417Z" fill="#131313"/>
</g>
</g>
<defs>
<clipPath id="clip0_7094_4676">
<rect width="108" height="26" fill="white" transform="translate(0 0.5)"/>
</clipPath>
<clipPath id="clip1_7094_4676">
<rect width="108" height="26" fill="white" transform="translate(0 0.5)"/>
</clipPath>
</defs>
</svg>
