<svg width="27" height="27" viewBox="0 0 27 27" fill="none" xmlns="http://www.w3.org/2000/svg">
<path fill-rule="evenodd" clip-rule="evenodd" d="M0.117188 25.132C0.117188 25.887 0.729187 26.5 1.48519 26.5H6.95919C7.71519 26.5 8.32719 25.887 8.32719 25.132V22.293C8.32719 21.538 8.94019 20.925 9.69619 20.925H10.4822C11.2372 20.925 11.8502 20.312 11.8502 19.556V16.136C11.8502 15.38 11.2372 14.767 10.4822 14.767H7.06119C6.30519 14.767 5.69219 15.38 5.69219 16.135V16.921C5.69219 17.677 5.07919 18.29 4.32419 18.29H1.48519C0.730187 18.29 0.117188 18.902 0.117188 19.658V25.132ZM8.32719 5.39C8.32719 6.146 8.94019 6.758 9.69619 6.758H10.4822C11.2372 6.758 11.8502 7.371 11.8502 8.127V10.864C11.8502 11.619 11.2372 12.232 10.4822 12.232H7.74519C7.56545 12.2321 7.38746 12.1968 7.22137 12.1282C7.05528 12.0595 6.90436 11.9587 6.77722 11.8317C6.65008 11.7046 6.54923 11.5538 6.48042 11.3877C6.4116 11.2217 6.37619 11.0437 6.37619 10.864V10.078C6.37619 9.322 5.76419 8.71 5.00819 8.71H1.48519C1.12237 8.71 0.774415 8.56587 0.517865 8.30932C0.261316 8.05277 0.117187 7.70482 0.117188 7.342V1.87C0.117188 1.113 0.729187 0.5 1.48519 0.5H6.95919C7.71519 0.5 8.32719 1.113 8.32719 1.869V5.39ZM19.8572 10.078C19.8572 9.322 20.4702 8.71 21.2262 8.71H24.7492C25.5042 8.71 26.1172 8.097 26.1172 7.341V1.87C26.1172 1.507 25.9731 1.15884 25.7166 0.90197C25.4601 0.645103 25.1122 0.50053 24.7492 0.5H19.2752C18.9122 0.500265 18.5641 0.644583 18.3075 0.901263C18.0508 1.15794 17.9065 1.506 17.9062 1.869V5.39C17.9062 6.146 17.2942 6.758 16.5382 6.758H15.7522C14.9972 6.758 14.3842 7.371 14.3842 8.127V10.864C14.3842 11.619 14.9972 12.232 15.7522 12.232H18.4892C19.2452 12.232 19.8582 11.619 19.8582 10.864L19.8572 10.078ZM26.1172 25.131C26.1172 25.886 25.5042 26.499 24.7482 26.499H19.2752C19.0955 26.4991 18.9175 26.4638 18.7514 26.3952C18.5853 26.3265 18.4344 26.2257 18.3072 26.0987C18.1801 25.9716 18.0792 25.8208 18.0104 25.6547C17.9416 25.4887 17.9062 25.3107 17.9062 25.131V21.608C17.9062 20.853 17.2932 20.24 16.5382 20.24H15.7522C15.5725 20.24 15.3945 20.2046 15.2284 20.1358C15.0624 20.067 14.9116 19.9661 14.7845 19.839C14.6575 19.7118 14.5567 19.5609 14.488 19.3948C14.4193 19.2287 14.3841 19.0507 14.3842 18.871V16.135C14.3842 15.379 14.9972 14.766 15.7522 14.766H18.4892C18.8522 14.7663 19.2002 14.9106 19.4569 15.1673C19.7136 15.4239 19.8579 15.772 19.8582 16.135V16.92C19.8582 17.676 20.4702 18.289 21.2262 18.289H24.7482C25.5042 18.289 26.1172 18.901 26.1172 19.657V25.131Z" fill="#131313"/>
</svg>
