<svg width="32" height="33" viewBox="0 0 32 33" fill="none" xmlns="http://www.w3.org/2000/svg">
<g clip-path="url(#clip0_7174_3408)">
<g clip-path="url(#clip1_7174_3408)">
<path d="M14 10.4999L14 14.0997C14 14.4864 13.6866 14.7998 13.2999 14.7998L9.70009 14.7998C9.31345 14.7998 9.00002 14.4864 9.00002 14.0997L9.00002 10.4999C9.00002 10.1133 9.31345 9.79982 9.70009 9.79982L13.2999 9.79982C13.6866 9.79982 14 10.1133 14 10.4999Z" fill="#96D3FF"/>
</g>
</g>
<g clip-path="url(#clip2_7174_3408)">
<g clip-path="url(#clip3_7174_3408)">
<path d="M5 10.4999L5 14.0997C5 14.4864 4.68657 14.7998 4.29993 14.7998L0.700091 14.7998C0.313452 14.7998 2.00683e-05 14.4864 2.0119e-05 14.0997L2.0591e-05 10.4999C2.06417e-05 10.1133 0.313453 9.79982 0.700092 9.79982L4.29993 9.79982C4.68657 9.79982 5 10.1133 5 10.4999Z" fill="#96D3FF"/>
</g>
</g>
<g clip-path="url(#clip4_7174_3408)">
<g clip-path="url(#clip5_7174_3408)">
<path d="M23 10.4999L23 14.0997C23 14.4864 22.6866 14.7998 22.2999 14.7998L18.7001 14.7998C18.3135 14.7998 18 14.4864 18 14.0997L18 10.4999C18 10.1133 18.3135 9.79982 18.7001 9.79982L22.2999 9.79982C22.6866 9.79982 23 10.1133 23 10.4999Z" fill="#96D3FF"/>
</g>
</g>
<g clip-path="url(#clip6_7174_3408)">
<g clip-path="url(#clip7_7174_3408)">
<path d="M32 10.4999L32 14.0997C32 14.4864 31.6866 14.7998 31.2999 14.7998L27.7001 14.7998C27.3135 14.7998 27 14.4864 27 14.0997L27 10.4999C27 10.1133 27.3135 9.79982 27.7001 9.79982L31.2999 9.79982C31.6866 9.79982 32 10.1133 32 10.4999Z" fill="#96D3FF"/>
</g>
</g>
<g clip-path="url(#clip8_7174_3408)">
<g clip-path="url(#clip9_7174_3408)">
<path d="M14 1.4999L14 5.09973C14 5.48637 13.6866 5.7998 13.2999 5.7998L9.70009 5.7998C9.31345 5.7998 9.00002 5.48637 9.00002 5.09973L9.00002 1.49989C9.00002 1.11326 9.31345 0.799824 9.70009 0.799824L13.2999 0.799825C13.6866 0.799825 14 1.11326 14 1.4999Z" fill="#96D3FF"/>
</g>
</g>
<g clip-path="url(#clip10_7174_3408)">
<g clip-path="url(#clip11_7174_3408)">
<path d="M13.2999 23.7998L9.70007 23.7998C9.31343 23.7998 9 23.4864 9 23.0997L9 19.4999C9 19.1133 9.31343 18.7998 9.70007 18.7998L13.2999 18.7998C13.6865 18.7998 14 19.1133 14 19.4999L14 23.0997C14 23.4864 13.6865 23.7998 13.2999 23.7998Z" fill="#96D3FF"/>
</g>
</g>
<g clip-path="url(#clip12_7174_3408)">
<g clip-path="url(#clip13_7174_3408)">
<path d="M4.29991 23.7998L0.700071 23.7998C0.313432 23.7998 5.48024e-08 23.4864 1.22405e-07 23.0997L7.51822e-07 19.4999C8.19424e-07 19.1133 0.313433 18.7998 0.700072 18.7998L4.29991 18.7998C4.68655 18.7998 4.99998 19.1133 4.99998 19.4999L4.99998 23.0997C4.99998 23.4864 4.68655 23.7998 4.29991 23.7998Z" fill="#96D3FF"/>
</g>
</g>
<g clip-path="url(#clip14_7174_3408)">
<g clip-path="url(#clip15_7174_3408)">
<path d="M13.2999 32.7998L9.70007 32.7998C9.31343 32.7998 9 32.4864 9 32.0997L9 28.4999C9 28.1133 9.31343 27.7998 9.70007 27.7998L13.2999 27.7998C13.6865 27.7998 14 28.1133 14 28.4999L14 32.0997C14 32.4864 13.6865 32.7998 13.2999 32.7998Z" fill="#96D3FF"/>
</g>
</g>
<rect x="18" y="23.7998" width="5" height="5" rx="1" transform="rotate(-90 18 23.7998)" fill="#95D3FF"/>
<rect x="27" y="23.7998" width="5" height="5" rx="1" transform="rotate(-90 27 23.7998)" fill="#95D3FF"/>
<rect x="18" y="32.7998" width="5" height="5" rx="1" transform="rotate(-90 18 32.7998)" fill="#95D3FF"/>
<rect x="18" y="5.7998" width="5" height="5" rx="1" transform="rotate(-90 18 5.7998)" fill="#95D3FF"/>
<defs>
<clipPath id="clip0_7174_3408">
<rect width="5" height="5" fill="white" transform="translate(9 9.7998)"/>
</clipPath>
<clipPath id="clip1_7174_3408">
<rect width="5" height="5" fill="white" transform="translate(9 9.7998)"/>
</clipPath>
<clipPath id="clip2_7174_3408">
<rect width="5" height="5" fill="white" transform="translate(0 9.7998)"/>
</clipPath>
<clipPath id="clip3_7174_3408">
<rect width="5" height="5" fill="white" transform="translate(0 9.7998)"/>
</clipPath>
<clipPath id="clip4_7174_3408">
<rect width="5" height="5" fill="white" transform="translate(18 9.7998)"/>
</clipPath>
<clipPath id="clip5_7174_3408">
<rect width="5" height="5" fill="white" transform="translate(18 9.7998)"/>
</clipPath>
<clipPath id="clip6_7174_3408">
<rect width="5" height="5" fill="white" transform="translate(27 9.7998)"/>
</clipPath>
<clipPath id="clip7_7174_3408">
<rect width="5" height="5" fill="white" transform="translate(27 9.7998)"/>
</clipPath>
<clipPath id="clip8_7174_3408">
<rect width="5" height="5" fill="white" transform="translate(9 0.799805)"/>
</clipPath>
<clipPath id="clip9_7174_3408">
<rect width="5" height="5" fill="white" transform="translate(9 0.799805)"/>
</clipPath>
<clipPath id="clip10_7174_3408">
<rect width="5" height="5" fill="white" transform="translate(9 18.7998)"/>
</clipPath>
<clipPath id="clip11_7174_3408">
<rect width="5" height="5" fill="white" transform="translate(9 18.7998)"/>
</clipPath>
<clipPath id="clip12_7174_3408">
<rect width="5" height="5" fill="white" transform="translate(0 18.7998)"/>
</clipPath>
<clipPath id="clip13_7174_3408">
<rect width="5" height="5" fill="white" transform="translate(0 18.7998)"/>
</clipPath>
<clipPath id="clip14_7174_3408">
<rect width="5" height="5" fill="white" transform="translate(9 27.7998)"/>
</clipPath>
<clipPath id="clip15_7174_3408">
<rect width="5" height="5" fill="white" transform="translate(9 27.7998)"/>
</clipPath>
</defs>
</svg>
