<svg width="37" height="23" viewBox="0 0 37 23" fill="none" xmlns="http://www.w3.org/2000/svg">
<g clip-path="url(#clip0_7174_3410)">
<g clip-path="url(#clip1_7174_3410)">
<path d="M16.5 7.22743L16.5 10.8273C16.5 11.2139 16.1866 11.5273 15.7999 11.5273L12.2001 11.5273C11.8135 11.5273 11.5 11.2139 11.5 10.8273L11.5 7.22743C11.5 6.8408 11.8135 6.52736 12.2001 6.52736L15.7999 6.52736C16.1866 6.52736 16.5 6.8408 16.5 7.22743Z" fill="#FDAFAF"/>
</g>
</g>
<g clip-path="url(#clip2_7174_3410)">
<g clip-path="url(#clip3_7174_3410)">
<path d="M21.5 2.22743L21.5 5.82727C21.5 6.21391 21.1866 6.52734 20.7999 6.52734L17.2001 6.52734C16.8135 6.52734 16.5 6.21391 16.5 5.82727L16.5 2.22743C16.5 1.8408 16.8135 1.52736 17.2001 1.52736L20.7999 1.52736C21.1866 1.52736 21.5 1.8408 21.5 2.22743Z" fill="#FDAFAF"/>
</g>
</g>
<g clip-path="url(#clip4_7174_3410)">
<g clip-path="url(#clip5_7174_3410)">
<path d="M9.79991 16.5273L6.20007 16.5273C5.81343 16.5273 5.5 16.2139 5.5 15.8273L5.5 12.2274C5.5 11.8408 5.81343 11.5274 6.20007 11.5274L9.79991 11.5274C10.1865 11.5274 10.5 11.8408 10.5 12.2274L10.5 15.8273C10.5 16.2139 10.1865 16.5273 9.79991 16.5273Z" fill="#FDAFAF"/>
</g>
</g>
<g clip-path="url(#clip6_7174_3410)">
<g clip-path="url(#clip7_7174_3410)">
<path d="M4.79991 21.5273L1.20007 21.5273C0.813432 21.5273 0.5 21.2139 0.5 20.8273L0.500001 17.2274C0.500001 16.8408 0.813433 16.5274 1.20007 16.5274L4.79991 16.5274C5.18655 16.5274 5.49998 16.8408 5.49998 17.2274L5.49998 20.8273C5.49998 21.2139 5.18655 21.5273 4.79991 21.5273Z" fill="#FDAFAF"/>
</g>
</g>
<g clip-path="url(#clip8_7174_3410)">
<g clip-path="url(#clip9_7174_3410)">
<path d="M31.5 7.22743L31.5 10.8273C31.5 11.2139 31.1866 11.5273 30.7999 11.5273L27.2001 11.5273C26.8135 11.5273 26.5 11.2139 26.5 10.8273L26.5 7.22743C26.5 6.8408 26.8135 6.52736 27.2001 6.52736L30.7999 6.52736C31.1866 6.52736 31.5 6.8408 31.5 7.22743Z" fill="#FDAFAF"/>
</g>
</g>
<g clip-path="url(#clip10_7174_3410)">
<g clip-path="url(#clip11_7174_3410)">
<path d="M36.5 2.22743L36.5 5.82727C36.5 6.21391 36.1866 6.52734 35.7999 6.52734L32.2001 6.52734C31.8135 6.52734 31.5 6.21391 31.5 5.82727L31.5 2.22743C31.5 1.8408 31.8135 1.52736 32.2001 1.52736L35.7999 1.52736C36.1866 1.52736 36.5 1.8408 36.5 2.22743Z" fill="#FDAFAF"/>
</g>
</g>
<g clip-path="url(#clip12_7174_3410)">
<g clip-path="url(#clip13_7174_3410)">
<path d="M24.7999 16.5273L21.2001 16.5273C20.8134 16.5273 20.5 16.2139 20.5 15.8273L20.5 12.2274C20.5 11.8408 20.8134 11.5274 21.2001 11.5274L24.7999 11.5274C25.1865 11.5274 25.5 11.8408 25.5 12.2274L25.5 15.8273C25.5 16.2139 25.1865 16.5273 24.7999 16.5273Z" fill="#FDAFAF"/>
</g>
</g>
<g clip-path="url(#clip14_7174_3410)">
<g clip-path="url(#clip15_7174_3410)">
<path d="M19.7999 21.5273L16.2001 21.5273C15.8134 21.5273 15.5 21.2139 15.5 20.8273L15.5 17.2274C15.5 16.8408 15.8134 16.5274 16.2001 16.5274L19.7999 16.5274C20.1865 16.5274 20.5 16.8408 20.5 17.2274L20.5 20.8273C20.5 21.2139 20.1865 21.5273 19.7999 21.5273Z" fill="#FDAFAF"/>
</g>
</g>
<g clip-path="url(#clip16_7174_3410)">
<g clip-path="url(#clip17_7174_3410)">
<path d="M35.2999 21.0273L31.7001 21.0273C31.3134 21.0273 31 20.7139 31 20.3273L31 16.7274C31 16.3408 31.3134 16.0274 31.7001 16.0274L35.2999 16.0274C35.6865 16.0274 36 16.3408 36 16.7274L36 20.3273C36 20.7139 35.6865 21.0273 35.2999 21.0273Z" fill="#FDAFAF"/>
</g>
</g>
<g clip-path="url(#clip18_7174_3410)">
<g clip-path="url(#clip19_7174_3410)">
<path d="M5.29991 6.02734L1.70007 6.02734C1.31343 6.02734 1 5.71391 1 5.32727L1 1.72743C1 1.3408 1.31343 1.02736 1.70007 1.02736L5.29991 1.02736C5.68655 1.02736 5.99998 1.3408 5.99998 1.72744L5.99998 5.32727C5.99998 5.71391 5.68655 6.02734 5.29991 6.02734Z" fill="#FDAFAF"/>
</g>
</g>
<defs>
<clipPath id="clip0_7174_3410">
<rect width="5" height="6" fill="white" transform="translate(11.5 6.2998)"/>
</clipPath>
<clipPath id="clip1_7174_3410">
<rect width="5" height="6" fill="white" transform="translate(11.5 6.2998)"/>
</clipPath>
<clipPath id="clip2_7174_3410">
<rect width="5" height="6" fill="white" transform="translate(16.5 1.2998)"/>
</clipPath>
<clipPath id="clip3_7174_3410">
<rect width="5" height="6" fill="white" transform="translate(16.5 1.2998)"/>
</clipPath>
<clipPath id="clip4_7174_3410">
<rect width="5" height="6" fill="white" transform="translate(5.5 11.2998)"/>
</clipPath>
<clipPath id="clip5_7174_3410">
<rect width="5" height="6" fill="white" transform="translate(5.5 11.2998)"/>
</clipPath>
<clipPath id="clip6_7174_3410">
<rect width="5" height="6" fill="white" transform="translate(0.5 16.2998)"/>
</clipPath>
<clipPath id="clip7_7174_3410">
<rect width="5" height="6" fill="white" transform="translate(0.5 16.2998)"/>
</clipPath>
<clipPath id="clip8_7174_3410">
<rect width="5" height="6" fill="white" transform="translate(26.5 6.2998)"/>
</clipPath>
<clipPath id="clip9_7174_3410">
<rect width="5" height="6" fill="white" transform="translate(26.5 6.2998)"/>
</clipPath>
<clipPath id="clip10_7174_3410">
<rect width="5" height="6" fill="white" transform="translate(31.5 1.2998)"/>
</clipPath>
<clipPath id="clip11_7174_3410">
<rect width="5" height="6" fill="white" transform="translate(31.5 1.2998)"/>
</clipPath>
<clipPath id="clip12_7174_3410">
<rect width="5" height="6" fill="white" transform="translate(20.5 11.2998)"/>
</clipPath>
<clipPath id="clip13_7174_3410">
<rect width="5" height="6" fill="white" transform="translate(20.5 11.2998)"/>
</clipPath>
<clipPath id="clip14_7174_3410">
<rect width="5" height="6" fill="white" transform="translate(15.5 16.2998)"/>
</clipPath>
<clipPath id="clip15_7174_3410">
<rect width="5" height="6" fill="white" transform="translate(15.5 16.2998)"/>
</clipPath>
<clipPath id="clip16_7174_3410">
<rect width="5" height="6" fill="white" transform="translate(31 15.7998)"/>
</clipPath>
<clipPath id="clip17_7174_3410">
<rect width="5" height="6" fill="white" transform="translate(31 15.7998)"/>
</clipPath>
<clipPath id="clip18_7174_3410">
<rect width="5" height="6" fill="white" transform="translate(1 0.799805)"/>
</clipPath>
<clipPath id="clip19_7174_3410">
<rect width="5" height="6" fill="white" transform="translate(1 0.799805)"/>
</clipPath>
</defs>
</svg>
